<?xml version="1.0" encoding="UTF-8" standalone="no"?>
<svg width="260px" height="131px" viewBox="0 0 260 131" version="1.1" xmlns="http://www.w3.org/2000/svg" xmlns:xlink="http://www.w3.org/1999/xlink" xmlns:sketch="http://www.bohemiancoding.com/sketch/ns">
    <!-- Generator: Sketch 3.3.1 (12002) - http://www.bohemiancoding.com/sketch -->
    <title>Fill 2</title>
    <desc>Created with Sketch.</desc>
    <defs></defs>
    <g id="Page-1" stroke="none" stroke-width="1" fill="none" fill-rule="evenodd" sketch:type="MSPage">
        <path d="M259.474,0.641 C259.474,0.641 259.432,2.225 259.353,5.197 C259.325,5.94 259.332,6.768 259.268,7.683 C259.197,8.599 259.12,9.598 259.036,10.679 C258.947,11.758 258.877,12.922 258.754,14.157 C258.596,15.387 258.428,16.693 258.251,18.074 C258.163,18.765 258.072,19.474 257.978,20.201 C257.866,20.925 257.72,21.662 257.588,22.42 C257.306,23.932 257.051,25.522 256.713,27.165 C256.334,28.799 255.939,30.5 255.529,32.265 C255.107,34.026 254.538,35.817 254.023,37.686 C251.797,45.11 248.605,53.301 244.104,61.719 C239.625,70.144 233.698,78.699 226.448,86.876 C222.776,90.919 218.829,94.929 214.446,98.635 C212.314,100.557 209.989,102.295 207.692,104.109 C206.527,104.994 205.307,105.818 204.108,106.681 L202.297,107.966 L200.42,109.171 C190.444,115.693 179.182,120.973 167.203,124.584 C161.218,126.42 155.027,127.691 148.778,128.671 C142.509,129.587 136.166,129.971 129.801,130.045 C123.471,129.956 117.102,129.556 110.845,128.625 C104.6,127.629 98.415,126.344 92.44,124.495 C80.478,120.857 69.241,115.555 59.296,109.017 L57.425,107.809 L55.619,106.522 C54.425,105.657 53.208,104.832 52.047,103.945 C49.758,102.128 47.442,100.388 45.318,98.464 C40.952,94.754 37.022,90.741 33.368,86.697 C26.152,78.519 20.261,69.971 15.815,61.556 C11.346,53.15 8.184,44.975 5.983,37.569 C5.474,35.705 4.911,33.919 4.495,32.163 C4.091,30.403 3.702,28.706 3.328,27.076 C2.995,25.438 2.744,23.853 2.467,22.345 C2.337,21.59 2.194,20.855 2.084,20.133 C1.993,19.408 1.904,18.702 1.817,18.013 C1.644,16.637 1.48,15.334 1.326,14.109 C1.206,12.879 1.14,11.722 1.053,10.648 C0.973,9.574 0.898,8.58 0.83,7.669 C0.768,6.758 0.777,5.927 0.751,5.184 C0.679,2.213 0.641,0.628 0.641,0.628 C0.641,0.628 0.683,2.213 0.762,5.184 C0.79,5.926 0.784,6.757 0.848,7.668 C0.918,8.579 0.995,9.572 1.078,10.647 C1.167,11.72 1.236,12.876 1.359,14.105 C1.516,15.33 1.683,16.632 1.86,18.008 C1.948,18.695 2.039,19.402 2.132,20.126 C2.244,20.847 2.389,21.582 2.52,22.336 C2.801,23.842 3.055,25.427 3.392,27.063 C3.77,28.691 4.163,30.386 4.571,32.143 C4.991,33.898 5.558,35.682 6.072,37.543 C8.289,44.938 11.469,53.097 15.953,61.482 C20.414,69.876 26.318,78.397 33.541,86.543 C37.199,90.57 41.13,94.565 45.496,98.257 C47.62,100.172 49.936,101.902 52.224,103.71 C53.385,104.592 54.601,105.412 55.795,106.272 L57.599,107.551 L59.469,108.752 C69.406,115.25 80.624,120.509 92.557,124.106 C98.518,125.934 104.685,127.2 110.91,128.177 C117.156,129.089 123.466,129.471 129.814,129.545 C136.129,129.456 142.464,129.058 148.698,128.13 C154.919,127.138 161.079,125.859 167.031,124.016 C178.947,120.392 190.139,115.111 200.047,108.598 L201.91,107.395 L203.709,106.112 C204.899,105.251 206.111,104.429 207.268,103.546 C209.547,101.735 211.855,100.002 213.971,98.085 C218.32,94.39 222.234,90.392 225.875,86.364 C233.062,78.217 238.931,69.702 243.36,61.32 C247.811,52.946 250.96,44.804 253.153,37.427 C253.66,35.57 254.221,33.791 254.635,32.041 C255.038,30.288 255.426,28.598 255.798,26.975 C256.13,25.343 256.379,23.763 256.655,22.262 C256.784,21.509 256.927,20.777 257.037,20.058 C257.128,19.336 257.216,18.632 257.303,17.947 C257.475,16.576 257.638,15.278 257.792,14.057 C257.911,12.834 257.977,11.684 258.063,10.616 C258.143,9.548 258.217,8.559 258.285,7.654 C258.347,6.747 258.338,5.913 258.365,5.172 C258.436,2.2 258.474,0.616 258.474,0.616 L259.474,0.641" id="Fill-2" fill="#FFFFFF" sketch:type="MSShapeGroup"></path>
    </g>
</svg>