<?xml version="1.0" encoding="utf-8"?>
<!-- Generator: Adobe Illustrator 18.1.1, SVG Export Plug-In . SVG Version: 6.00 Build 0)  -->
<svg version="1.1" id="Layer_1" xmlns:dc="http://purl.org/dc/elements/1.1/" xmlns:xl="http://www.w3.org/1999/xlink"
	 xmlns="http://www.w3.org/2000/svg" xmlns:xlink="http://www.w3.org/1999/xlink" x="0px" y="0px" viewBox="-236.2 347 66 65.8"
	 enable-background="new -236.2 347 66 65.8" xml:space="preserve">
<g>
	<title>Canvas 1</title>
	<g>
		<title>Layer 1</title>
		<path fill="#55ACEE" d="M-197.3,359L-197.3,359l-0.1,0.2c-0.2,0.3-0.5,0.6-0.7,1l-8,11.2l-12.2-8.8l-10.5-7.5v22.1l0,0
			c0,3,1.1,6,3.3,8.3c1.9,1.9,4.4,3,6.9,3.3l-1.7,2.4l-11.5,16.1h34l0,0c4.6,0.1,9.2-1.6,12.7-5.1c3.1-3.1,4.7-6.9,5.1-10.9l0.1,0
			v-1.4c0,0,0,0,0,0v-18.1l6.4-3.4l-6.4-3.4c-0.1-2.4-1.1-4.7-2.9-6.5c-3.8-3.8-10-3.8-13.8,0C-196.9,358.6-197.1,358.8-197.3,359z
			 M-187.8,362.5c0.8,0.8,0.8,2,0,2.8s-2,0.8-2.8,0c-0.8-0.8-0.8-2,0-2.8C-189.9,361.8-188.6,361.8-187.8,362.5"/>
	</g>
</g>
</svg>
